<svg width="25" height="25" viewBox="0 0 25 25" fill="none" xmlns="http://www.w3.org/2000/svg">
<path d="M0 20V25H5L19.7467 10.2534L14.7467 5.25336L0 20ZM23.6133 6.38669C23.7369 6.26334 23.835 6.11682 23.9019 5.95552C23.9688 5.79423 24.0033 5.62132 24.0033 5.44669C24.0033 5.27207 23.9688 5.09916 23.9019 4.93786C23.835 4.77656 23.7369 4.63004 23.6133 4.50669L20.4933 1.38669C20.37 1.26309 20.2235 1.16502 20.0622 1.09811C19.9009 1.03121 19.728 0.996765 19.5533 0.996765C19.3787 0.996765 19.2058 1.03121 19.0445 1.09811C18.8832 1.16502 18.7367 1.26309 18.6133 1.38669L16.1733 3.82669L21.1733 8.82669L23.6133 6.38669Z" fill="#F9AA50"/>
</svg>
