<svg width="36" height="35" viewBox="0 0 36 35" fill="none" xmlns="http://www.w3.org/2000/svg">
<path d="M7.38994 18.9583H23.6795L16.5629 26.075C15.9941 26.6437 15.9941 27.577 16.5629 28.1458C16.6978 28.281 16.858 28.3882 17.0344 28.4614C17.2109 28.5346 17.4 28.5723 17.591 28.5723C17.782 28.5723 17.9711 28.5346 18.1475 28.4614C18.3239 28.3882 18.4842 28.281 18.6191 28.1458L28.2295 18.5354C28.3647 18.4005 28.472 18.2402 28.5452 18.0638C28.6183 17.8874 28.656 17.6982 28.656 17.5072C28.656 17.3162 28.6183 17.1271 28.5452 16.9507C28.472 16.7743 28.3647 16.614 28.2295 16.4791L18.6191 6.8687C18.4841 6.73369 18.3238 6.62659 18.1474 6.55352C17.971 6.48045 17.7819 6.44284 17.591 6.44284C17.4 6.44284 17.211 6.48045 17.0346 6.55352C16.8582 6.62659 16.6979 6.73369 16.5629 6.8687C16.4278 7.00372 16.3207 7.16401 16.2477 7.34041C16.1746 7.51682 16.137 7.70589 16.137 7.89683C16.137 8.08777 16.1746 8.27684 16.2477 8.45325C16.3207 8.62965 16.4278 8.78994 16.5629 8.92495L23.6795 16.0416H7.38994C6.58786 16.0416 5.93161 16.6979 5.93161 17.5C5.93161 18.302 6.58786 18.9583 7.38994 18.9583Z" fill="#4B8078"/>
</svg>
