<svg width="10" height="14" viewBox="0 0 10 14" fill="none" xmlns="http://www.w3.org/2000/svg">
<path d="M5 13.6667C7.57266 13.6667 9.66666 11.5727 9.66666 9.00004C9.66666 6.42737 7.57266 4.33337 5 4.33337C2.42666 4.33337 0.333328 6.42737 0.333328 9.00004C0.333328 11.5727 2.42666 13.6667 5 13.6667ZM5 5.66671C6.838 5.66671 8.33333 7.16204 8.33333 9.00004C8.33333 10.838 6.838 12.3334 5 12.3334C3.16199 12.3334 1.66666 10.838 1.66666 9.00004C1.66666 7.16204 3.16199 5.66671 5 5.66671ZM4.33333 0.333374H1.66666V4.01204C2.46445 3.47819 3.37918 3.14454 4.33333 3.03937V0.333374ZM8.33333 0.333374H5.66666V3.03937C6.62081 3.14454 7.53554 3.47819 8.33333 4.01204V0.333374Z" fill="#F9AA50"/>
<path d="M3.67929 9.54071L3.36729 11.358L4.99996 10.5L6.63262 11.358L6.32062 9.54071L7.64196 8.25271L5.81662 7.98737L4.99996 6.33337L4.18329 7.98737L2.35796 8.25271L3.67929 9.54071Z" fill="#F9AA50"/>
</svg>
