<svg width="26" height="34" viewBox="0 0 26 34" fill="none" xmlns="http://www.w3.org/2000/svg">
<path d="M2.25412 25.9259C2.11845 26.267 2.04297 26.6385 2.04297 27.0273C2.04297 28.4035 2.97836 29.5648 4.24631 29.9103C4.11064 30.2514 4.03516 30.6229 4.03516 31.0117C4.03516 32.6594 5.37573 34 7.02344 34H12.8532C14.3533 34 15.9099 33.6106 17.6126 32.8101C18.7288 32.2851 19.9706 32.0078 21.2038 32.0078H24.9531C25.5033 32.0078 25.9492 31.5619 25.9492 31.0117V21.0508C25.9492 20.5006 25.5033 20.0547 24.9531 20.0547H21.7949C20.244 20.0547 18.7859 19.4508 17.6889 18.3541C16.216 16.8815 14.2576 16.0703 12.1746 16.0703H12.0039V14.0781H16.9844C17.5346 14.0781 17.9805 13.6322 17.9805 13.082V0.996094C17.9805 0.445908 17.5346 0 16.9844 0H1.04688C0.496689 0 0.0507812 0.445908 0.0507812 0.996094V13.082C0.0507812 13.6322 0.496689 14.0781 1.04688 14.0781H6.02734V16.0703H3.03906C1.39136 16.0703 0.0507812 17.4109 0.0507812 19.0586C0.0507812 19.8233 0.340012 20.5216 0.814194 21.0508C0.340012 21.58 0.0507812 22.2783 0.0507812 23.043C0.0507812 24.4191 0.986176 25.5804 2.25412 25.9259ZM3.03906 22.0469H6.02734V24.0391C5.09143 24.0391 3.97212 24.0391 3.03906 24.0391C2.48991 24.0391 2.04297 23.5921 2.04297 23.043C2.04297 22.4938 2.48991 22.0469 3.03906 22.0469ZM5.03125 26.0312H9.01562C9.56477 26.0312 10.0117 26.4782 10.0117 27.0273C10.0117 27.5765 9.56477 28.0234 9.01562 28.0234C8.53366 28.0234 5.51659 28.0234 5.03125 28.0234C4.4821 28.0234 4.03516 27.5765 4.03516 27.0273C4.03516 26.4782 4.4821 26.0312 5.03125 26.0312ZM6.02734 31.0117C6.02734 30.4626 6.47429 30.0156 7.02344 30.0156H9.01562C9.56477 30.0156 10.0117 30.4626 10.0117 31.0117C10.0117 31.5609 9.56477 32.0078 9.01562 32.0078H7.02344C6.47429 32.0078 6.02734 31.5609 6.02734 31.0117ZM16.2804 19.7629C17.7535 21.2357 19.712 22.0469 21.7949 22.0469H23.957V30.0156H21.2038C19.6795 30.0156 18.1444 30.3586 16.7649 31.0073C15.3333 31.6805 14.0537 32.0078 12.8532 32.0078H11.8327C11.9432 31.696 12.0039 31.3609 12.0039 31.0117C12.0039 30.247 11.7147 29.5487 11.2405 29.0195C11.7149 28.4904 12.0039 27.7921 12.0039 27.0273C12.0039 25.9659 11.447 25.0323 10.6104 24.5021C10.6784 24.4315 10.7445 24.3594 10.8081 24.285C11.9756 26.5054 14.3061 28.0234 16.9844 28.0234C17.5346 28.0234 17.9805 27.5775 17.9805 27.0273C17.9805 26.4772 17.5346 26.0312 16.9844 26.0312C14.2381 26.0312 12.0039 23.797 12.0039 21.0508C12.0039 20.5006 11.558 20.0547 11.0078 20.0547C10.4576 20.0547 10.0117 20.5006 10.0117 21.0508C10.0117 22.3493 9.17905 23.4572 8.01953 23.8684V18.0625H12.1746C13.7255 18.0625 15.1836 18.6664 16.2804 19.7629V19.7629ZM2.04297 1.99219H15.9883V12.0859H2.04297V1.99219ZM10.0117 14.0781V16.0703H8.01953V14.0781H10.0117ZM3.03906 18.0625H6.02734V20.0547H3.03906C2.48991 20.0547 2.04297 19.6077 2.04297 19.0586C2.04297 18.5094 2.48991 18.0625 3.03906 18.0625Z" fill="#4B8078"/>
<path d="M8.01953 10.0273C8.27452 10.0273 8.52951 9.93007 8.7238 9.73552L12.7082 5.75114C13.0973 5.36205 13.0973 4.73145 12.7082 4.34261C12.3193 3.95351 11.6885 3.95351 11.2996 4.34261L8.01953 7.62245L6.73161 6.33479C6.34277 5.94569 5.71191 5.94569 5.32307 6.33479C4.93398 6.72389 4.93398 7.35449 5.32307 7.74333L7.31526 9.73552C7.50955 9.93007 7.76454 10.0273 8.01953 10.0273Z" fill="#4B8078"/>
</svg>
