<svg width="30" height="30" viewBox="0 0 30 30" fill="none" xmlns="http://www.w3.org/2000/svg">
<path d="M20.775 3.73752C20.6299 3.59201 20.4574 3.47656 20.2676 3.39779C20.0778 3.31902 19.8743 3.27847 19.6688 3.27847C19.4632 3.27847 19.2597 3.31902 19.0699 3.39779C18.8801 3.47656 18.7076 3.59201 18.5625 3.73752L8.175 14.125C8.05912 14.2407 7.96719 14.378 7.90446 14.5292C7.84174 14.6805 7.80945 14.8426 7.80945 15.0063C7.80945 15.17 7.84174 15.3321 7.90446 15.4833C7.96719 15.6345 8.05912 15.7719 8.175 15.8875L18.5625 26.275C19.175 26.8875 20.1625 26.8875 20.775 26.275C21.3875 25.6625 21.3875 24.675 20.775 24.0625L11.725 15L20.7875 5.93752C21.3875 5.33752 21.3875 4.33752 20.775 3.73752Z" fill="#F9AA50"/>
</svg>
