<svg width="17" height="17" viewBox="0 0 17 17" fill="none" xmlns="http://www.w3.org/2000/svg">
<path d="M11.8097 10.6486H11.0831L10.8256 10.4005C11.758 9.3199 12.2705 7.9403 12.2695 6.5135C12.2695 5.33216 11.9189 4.17735 11.262 3.1951C10.6052 2.21285 9.67153 1.44728 8.57919 0.995195C7.48685 0.543115 6.28488 0.424831 5.12526 0.655299C3.96564 0.885768 2.90046 1.45464 2.06442 2.28997C1.22839 3.12531 0.659038 4.18959 0.428375 5.34823C0.197713 6.50688 0.316097 7.70784 0.768558 8.79926C1.22102 9.89068 1.98723 10.8235 2.97031 11.4798C3.95339 12.1362 5.10917 12.4865 6.29151 12.4865C7.77221 12.4865 9.13336 11.9443 10.1818 11.0438L10.4301 11.3011V12.027L15.0286 16.6124L16.3989 15.2432L11.8097 10.6486ZM6.29151 10.6486C4.00147 10.6486 2.15289 8.80161 2.15289 6.5135C2.15289 4.22539 4.00147 2.37837 6.29151 2.37837C8.58154 2.37837 10.4301 4.22539 10.4301 6.5135C10.4301 8.80161 8.58154 10.6486 6.29151 10.6486Z" fill="#4B8078"/>
</svg>
