<svg width="32" height="32" viewBox="0 0 32 32" fill="none" xmlns="http://www.w3.org/2000/svg">
<path d="M28.9907 16.4414L16.9907 3.10804C16.4854 2.54537 15.5147 2.54537 15.0094 3.10804L3.00939 16.4414C2.83667 16.6328 2.72329 16.8703 2.68305 17.125C2.64281 17.3797 2.67744 17.6407 2.78273 17.876C2.99606 18.3574 3.47339 18.6667 4.00006 18.6667H6.66673V28C6.66673 28.3537 6.8072 28.6928 7.05725 28.9428C7.3073 29.1929 7.64644 29.3334 8.00006 29.3334H12.0001C12.3537 29.3334 12.6928 29.1929 12.9429 28.9428C13.1929 28.6928 13.3334 28.3537 13.3334 28V22.6667H18.6667V28C18.6667 28.3537 18.8072 28.6928 19.0573 28.9428C19.3073 29.1929 19.6464 29.3334 20.0001 29.3334H24.0001C24.3537 29.3334 24.6928 29.1929 24.9429 28.9428C25.1929 28.6928 25.3334 28.3537 25.3334 28V18.6667H28.0001C28.2583 18.6678 28.5112 18.5937 28.7281 18.4536C28.945 18.3134 29.1164 18.1131 29.2214 17.8772C29.3264 17.6413 29.3605 17.38 29.3196 17.125C29.2786 16.87 29.1643 16.6325 28.9907 16.4414V16.4414Z" fill="#4B8078"/>
</svg>
