<svg width="32" height="32" viewBox="0 0 32 32" fill="none" xmlns="http://www.w3.org/2000/svg">
<path d="M23.6347 17.36L18.6667 21.3333H12.0001V20H17.4201C17.5407 19.9999 17.659 19.9672 17.7624 19.9052C17.8659 19.8432 17.9506 19.7543 18.0075 19.648C18.0644 19.5417 18.0914 19.4219 18.0856 19.3015C18.0799 19.181 18.0416 19.0644 17.9747 18.964L16.7907 17.188C16.5479 16.8224 16.2183 16.5226 15.8314 16.3153C15.4445 16.108 15.0123 15.9997 14.5734 16H4.00008C3.64646 16 3.30732 16.1405 3.05727 16.3905C2.80722 16.6406 2.66675 16.9797 2.66675 17.3333V25.3333C2.66675 26.0406 2.9477 26.7189 3.4478 27.219C3.94789 27.719 4.62617 28 5.33341 28H18.1854C18.7556 28.0001 19.3191 27.8784 19.8384 27.6429C20.3576 27.4074 20.8205 27.0637 21.1961 26.6347L29.3334 17.3333L27.3974 16.688C26.764 16.4769 26.0878 16.4278 25.4306 16.5451C24.7733 16.6625 24.1559 16.9427 23.6347 17.36V17.36ZM25.6774 9.85333C26.2787 9.23333 26.6507 8.376 26.6507 7.42933C26.6507 6.48267 26.2787 5.62533 25.6774 5.00533C25.3733 4.68797 25.0082 4.43533 24.604 4.26257C24.1999 4.08981 23.765 4.0005 23.3254 4C23.3254 4 21.6667 3.996 20.0001 5.71467C18.3334 3.996 16.6747 4 16.6747 4C16.2353 4.00056 15.8006 4.08976 15.3964 4.26228C14.9923 4.43479 14.6271 4.68706 14.3227 5.004C13.7214 5.62533 13.3494 6.48133 13.3494 7.428C13.3494 8.37467 13.7214 9.23333 14.3227 9.852L20.0001 16L25.6774 9.85333Z" fill="white"/>
</svg>
