<svg width="25" height="25" viewBox="0 0 25 25" fill="none" xmlns="http://www.w3.org/2000/svg">
<path d="M4.16659 21.8751H14.1874C14.7885 21.8754 15.3826 21.7455 15.9287 21.4943C16.4748 21.243 16.96 20.8765 17.351 20.4198L22.6655 14.2198C22.7768 14.0902 22.8545 13.9352 22.8918 13.7685C22.9291 13.6018 22.9248 13.4285 22.8793 13.2638C22.8338 13.0992 22.7485 12.9482 22.631 12.8243C22.5134 12.7004 22.3672 12.6073 22.2051 12.5532L20.1551 11.8698C19.6597 11.7088 19.1321 11.6723 18.6192 11.7637C18.1063 11.8551 17.6239 12.0715 17.2145 12.3938L13.8968 15.0469L13.2541 13.7605C12.9098 13.067 12.3781 12.4838 11.7194 12.0769C11.0607 11.6701 10.3012 11.4558 9.527 11.4584H4.16659C3.01763 11.4584 2.08325 12.3927 2.08325 13.5417V19.7917C2.08325 20.9407 3.01763 21.8751 4.16659 21.8751ZM4.16659 13.5417H9.527C10.3218 13.5417 11.0353 13.9823 11.3905 14.6927L11.8562 15.625H7.29159V17.7084H13.5562C13.7164 17.7063 13.874 17.667 14.0166 17.5938L14.0197 17.5928L14.0239 17.5907H14.027L14.0291 17.5896H14.0333L14.0343 17.5886C14.0437 17.5917 14.0374 17.5875 14.0374 17.5875C14.0478 17.5875 14.0395 17.5865 14.0395 17.5865H14.0405L14.0426 17.5855L14.0458 17.5844L14.0478 17.5834L14.0499 17.5823L14.053 17.5813L14.0551 17.5803C14.0583 17.5803 14.0562 17.5792 14.0572 17.5792L14.0603 17.5771L14.0624 17.5761L14.0645 17.575L14.0676 17.574L14.0697 17.573H14.0708L14.0728 17.5719H14.0739L14.076 17.5709L14.078 17.5698C14.0874 17.5688 14.0812 17.5688 14.0812 17.5688L14.0833 17.5678C14.1234 17.5435 14.1617 17.5164 14.1978 17.4865L18.5166 14.0313C18.7895 13.8146 19.1655 13.7469 19.4958 13.8573L20.076 14.0511L15.7708 19.075C15.5727 19.2999 15.3291 19.4801 15.0562 19.6037C14.7832 19.7272 14.4871 19.7913 14.1874 19.7917H4.16659V13.5417ZM16.6666 2.08333H16.6489C16.4791 2.08542 15.601 2.12396 14.5833 2.81771C13.5926 2.14271 12.7353 2.08854 12.5333 2.08438L12.502 2.08333H12.4978C11.6635 2.08333 10.878 2.40938 10.2905 2.99792C9.70096 3.58855 9.37492 4.37292 9.37492 5.20834C9.37492 6.04376 9.70096 6.82814 10.2718 7.40002L13.828 11.1354C13.9259 11.237 14.0432 11.3178 14.173 11.3729C14.3028 11.4281 14.4424 11.4564 14.5835 11.4563C14.7245 11.4563 14.8641 11.4277 14.9938 11.3724C15.1235 11.317 15.2408 11.2361 15.3385 11.1344L18.876 7.41772C19.4666 6.82814 19.7916 6.04376 19.7916 5.20834C19.7916 4.37292 19.4655 3.58855 18.877 2.99896C18.5878 2.70786 18.2437 2.47704 17.8646 2.31987C17.4855 2.1627 17.079 2.0823 16.6687 2.08333H16.6666ZM17.7083 5.20834C17.7083 5.48647 17.5999 5.74793 17.3843 5.96355L14.5833 8.90627L11.7635 5.9448C11.5666 5.74793 11.4583 5.48647 11.4583 5.20834C11.4583 4.93022 11.5666 4.66876 11.7645 4.47084C11.9529 4.27923 12.2094 4.16989 12.478 4.16667C12.5041 4.16772 13.001 4.20001 13.5895 4.67188C13.6739 4.73959 13.7593 4.81667 13.8468 4.90313L14.5833 5.63959L15.3197 4.90313C15.4072 4.81667 15.4926 4.73959 15.577 4.67188C16.128 4.22917 16.5937 4.17396 16.6728 4.16771C16.8086 4.16769 16.943 4.19456 17.0684 4.24676C17.1937 4.29897 17.3074 4.37548 17.403 4.47188C17.5999 4.66876 17.7083 4.93022 17.7083 5.20834Z" fill="white"/>
</svg>
