<svg width="23" height="23" viewBox="0 0 23 23" fill="none" xmlns="http://www.w3.org/2000/svg">
<path d="M12.9375 5.8641V5.03125H13.6562C14.0534 5.03125 14.375 4.70961 14.375 4.3125V3.59375C14.375 3.19664 14.0534 2.875 13.6562 2.875H9.34375C8.94664 2.875 8.625 3.19664 8.625 3.59375V4.3125C8.625 4.70961 8.94664 5.03125 9.34375 5.03125H10.0625V5.8641C5.18803 6.56353 1.4375 10.7444 1.4375 15.8125H21.5625C21.5625 10.7444 17.812 6.56353 12.9375 5.8641ZM22.2812 17.25H0.71875C0.321641 17.25 0 17.5716 0 17.9688V19.4062C0 19.8034 0.321641 20.125 0.71875 20.125H22.2812C22.6784 20.125 23 19.8034 23 19.4062V17.9688C23 17.5716 22.6784 17.25 22.2812 17.25Z" fill="white"/>
</svg>
