<svg width="32" height="32" viewBox="0 0 32 32" fill="none" xmlns="http://www.w3.org/2000/svg">
<path d="M3.12523 20.3613L5.7919 24.9746C5.96893 25.2806 6.26025 25.5038 6.6018 25.5951C6.94334 25.6863 7.30715 25.6382 7.61323 25.4613L9.47456 24.3866C10.2479 24.996 11.1026 25.496 12.0012 25.8693V28C12.0012 28.3536 12.1417 28.6927 12.3918 28.9428C12.6418 29.1928 12.9809 29.3333 13.3346 29.3333H18.6679C19.0215 29.3333 19.3607 29.1928 19.6107 28.9428C19.8608 28.6927 20.0012 28.3536 20.0012 28V25.8693C20.9069 25.4922 21.757 24.9934 22.5279 24.3866L24.3892 25.4613C25.0252 25.828 25.8439 25.608 26.2106 24.9746L28.8772 20.3613C29.0527 20.0549 29.1 19.6916 29.0089 19.3504C28.9177 19.0093 28.6955 18.718 28.3906 18.54L26.5612 17.4826C26.7042 16.4993 26.7033 15.5004 26.5586 14.5173L28.3879 13.46C29.0226 13.0933 29.2426 12.2733 28.8746 11.6386L26.2079 7.02529C26.0309 6.71929 25.7395 6.49612 25.398 6.40486C25.0564 6.3136 24.6926 6.36171 24.3866 6.53863L22.5252 7.61329C21.7553 7.0058 20.9056 6.50691 19.9999 6.13063V3.99996C19.9999 3.64634 19.8594 3.3072 19.6094 3.05715C19.3593 2.8071 19.0202 2.66663 18.6666 2.66663H13.3332C12.9796 2.66663 12.6405 2.8071 12.3904 3.05715C12.1404 3.3072 11.9999 3.64634 11.9999 3.99996V6.13063C11.0942 6.50771 10.2441 7.00652 9.47323 7.61329L7.61323 6.53863C7.46172 6.45085 7.29439 6.39381 7.12081 6.37076C6.94724 6.34772 6.77082 6.35912 6.60166 6.40432C6.43249 6.44953 6.2739 6.52764 6.13495 6.63419C5.99601 6.74074 5.87943 6.87364 5.7919 7.02529L3.12523 11.6386C2.94975 11.945 2.90243 12.3084 2.99358 12.6495C3.08473 12.9906 3.30697 13.2819 3.6119 13.46L5.44123 14.5173C5.29741 15.5005 5.29741 16.4994 5.44123 17.4826L3.6119 18.54C2.97723 18.9066 2.75723 19.7266 3.12523 20.3613V20.3613ZM15.9999 10.6666C18.9412 10.6666 21.3332 13.0586 21.3332 16C21.3332 18.9413 18.9412 21.3333 15.9999 21.3333C13.0586 21.3333 10.6666 18.9413 10.6666 16C10.6666 13.0586 13.0586 10.6666 15.9999 10.6666Z" fill="white"/>
</svg>
