<svg width="20" height="20" viewBox="0 0 20 20" fill="none" xmlns="http://www.w3.org/2000/svg">
<path d="M17.6459 10.9792C17.6887 10.6667 17.7101 10.3438 17.7101 10C17.7101 9.66667 17.6887 9.33334 17.6352 9.02084L19.809 7.375C19.9027 7.2999 19.9667 7.19552 19.9901 7.07966C20.0136 6.96379 19.995 6.84361 19.9375 6.73958L17.8815 3.28125C17.8209 3.17663 17.7243 3.09623 17.6087 3.05428C17.493 3.01234 17.3659 3.01156 17.2497 3.05209L14.6903 4.05209C14.1549 3.65625 13.5874 3.32292 12.9556 3.07292L12.57 0.427086C12.5511 0.307847 12.4888 0.199177 12.3945 0.120811C12.3002 0.0424459 12.1801 -0.000418234 12.056 3.07646e-06H7.94396C7.68696 3.07646e-06 7.48349 0.177086 7.44066 0.427086L7.05515 3.07292C6.42335 3.32292 5.84509 3.66667 5.32037 4.05209L2.76103 3.05209C2.52544 2.96875 2.25773 3.05209 2.12922 3.28125L0.0838939 6.73958C-0.0446085 6.95833 -0.00177448 7.22917 0.212396 7.375L2.38623 9.02084C2.33269 9.33334 2.28985 9.67708 2.28985 10C2.28985 10.3229 2.31127 10.6667 2.36481 10.9792L0.190979 12.625C0.0973052 12.7001 0.0332999 12.8045 0.00986844 12.9203C-0.0135631 13.0362 0.00502903 13.1564 0.0624769 13.2604L2.11852 16.7188C2.24702 16.9479 2.51473 17.0208 2.75032 16.9479L5.30966 15.9479C5.84509 16.3438 6.41264 16.6771 7.04444 16.9271L7.42995 19.5729C7.48349 19.8229 7.68696 20 7.94396 20H12.056C12.313 20 12.5272 19.8229 12.5593 19.5729L12.9448 16.9271C13.5767 16.6771 14.1549 16.3438 14.6796 15.9479L17.239 16.9479C17.4746 17.0312 17.7423 16.9479 17.8708 16.7188L19.9268 13.2604C20.0553 13.0313 20.0018 12.7708 19.7983 12.625L17.6459 10.9792ZM10 13.75C7.87971 13.75 6.14493 12.0625 6.14493 10C6.14493 7.9375 7.87971 6.25 10 6.25C12.1203 6.25 13.8551 7.9375 13.8551 10C13.8551 12.0625 12.1203 13.75 10 13.75Z" fill="white"/>
</svg>
