<svg width="10" height="14" viewBox="0 0 10 14" fill="none" xmlns="http://www.w3.org/2000/svg">
<path fill-rule="evenodd" clip-rule="evenodd" d="M5 6.30012L4.99996 6.30005L4.12496 8.03675L2.16925 8.31535L3.58496 9.66775L3.25068 11.5759L4.99996 10.675L5 10.6751V6.30012Z" fill="#F9AA50"/>
<path fill-rule="evenodd" clip-rule="evenodd" d="M5 14V12.6C3.03071 12.6 1.42857 11.0299 1.42857 9.1C1.42857 7.1701 3.03071 5.6 5 5.6V4.2C2.24286 4.2 0 6.3987 0 9.1C0 11.8013 2.24286 14 5 14ZM1.42857 0H4.28571V2.8413C3.26341 2.95173 2.28334 3.30206 1.42857 3.8626V0Z" fill="#F9AA50"/>
<path fill-rule="evenodd" clip-rule="evenodd" d="M5 10.6751L6.74925 11.5759L6.41496 9.66775L7.83068 8.31535L5.87497 8.03675L5 6.30012V10.6751Z" fill="#E0E0E0"/>
<path fill-rule="evenodd" clip-rule="evenodd" d="M10 9.1C10 11.8013 7.75643 14 5 14V12.6C6.96929 12.6 8.57143 11.0299 8.57143 9.1C8.57143 7.1701 6.96929 5.6 5 5.6V4.2C7.75643 4.2 10 6.3987 10 9.1ZM5.71429 0H8.57143V3.8626C7.71666 3.30206 6.73659 2.95173 5.71429 2.8413V0Z" fill="#E0E0E0"/>
</svg>
