<svg width="10" height="14" viewBox="0 0 10 14" fill="none" xmlns="http://www.w3.org/2000/svg">
<path d="M5 14C7.75643 14 10 11.8013 10 9.1C10 6.3987 7.75643 4.2 5 4.2C2.24286 4.2 0 6.3987 0 9.1C0 11.8013 2.24286 14 5 14ZM5 5.6C6.96929 5.6 8.57143 7.1701 8.57143 9.1C8.57143 11.0299 6.96929 12.6 5 12.6C3.03071 12.6 1.42857 11.0299 1.42857 9.1C1.42857 7.1701 3.03071 5.6 5 5.6ZM4.28571 0H1.42857V3.8626C2.28334 3.30206 3.26341 2.95173 4.28571 2.8413V0ZM8.57143 0H5.71429V2.8413C6.73659 2.95173 7.71666 3.30206 8.57143 3.8626V0Z" fill="#E0E0E0"/>
<path d="M3.58496 9.66775L3.25068 11.5759L4.99996 10.675L6.74925 11.5759L6.41496 9.66775L7.83068 8.31535L5.87497 8.03675L4.99996 6.30005L4.12496 8.03675L2.16925 8.31535L3.58496 9.66775Z" fill="#E0E0E0"/>
</svg>
