<svg width="174" height="284" viewBox="0 0 174 284" fill="none" xmlns="http://www.w3.org/2000/svg">
<path fill-rule="evenodd" clip-rule="evenodd" d="M-3.13246 0.126869C25.64 -1.6683 50.7782 15.9516 74.7718 29.9163C97.5999 43.2027 116.64 59.7933 132.715 79.1929C150.165 100.25 168.112 121.87 172.285 147.595C176.735 175.021 172.841 204.216 156.885 228.166C140.944 252.093 114.06 270.065 84.2985 279.663C56.4903 288.632 26.4758 281.125 -3.13246 279.775C-31.171 278.495 -58.9918 280.146 -85.4366 271.919C-115.368 262.608 -149.672 253.381 -165.394 229.296C-181.113 205.217 -167.786 175.283 -166.595 147.595C-165.45 120.975 -176.661 90.7856 -158.516 69.3565C-140.285 47.8257 -102.186 51.4285 -74.8564 39.2519C-49.3089 27.8694 -31.7477 1.91223 -3.13246 0.126869Z" fill="#FFCA8E"/>
</svg>
