<svg width="240" height="255" viewBox="0 0 240 255" fill="none" xmlns="http://www.w3.org/2000/svg">
<path fill-rule="evenodd" clip-rule="evenodd" d="M163.156 -21.9523C190.054 -22.973 213.522 -7.40633 236.86 4.73363C260.234 16.8919 282.827 29.8472 299.537 48.9892C317.924 70.0527 341.02 93.5523 337.674 120.221C334.3 147.114 299.65 160.349 282.763 182.691C267.47 202.924 266.032 232.426 243.052 245.409C220.02 258.422 190.293 249.379 163.156 250.266C134.926 251.189 106.128 260.135 79.856 250.744C52.2957 240.893 29.597 220.927 15.3348 197.428C1.20093 174.14 -1.46952 146.719 0.638563 120.221C2.65614 94.8597 10.1379 69.4278 27.1291 49.1734C43.2545 29.9512 69.844 22.2706 92.9381 10.1952C116.044 -1.88621 136.492 -20.9404 163.156 -21.9523Z" fill="#F9AA50"/>
</svg>
